/* XPM */
static const char *snapshot_xpm[] = {
/* columns rows colors chars-per-pixel */
"32 32 173 2",
"   c #000000",
".  c #0D0D0D",
"X  c gray7",
"o  c #0A1122",
"O  c #1F2025",
"+  c #2D2D2D",
"@  c gray20",
"#  c #031741",
"$  c #1B2942",
"%  c #213D71",
"&  c #37456A",
"*  c #434343",
"=  c #494847",
"-  c #484848",
";  c #504F4C",
":  c #53524F",
">  c #535353",
",  c #5C5D5D",
"<  c gray40",
"1  c #6A6764",
"2  c #6D6D6D",
"3  c #616D7A",
"4  c #686E77",
"5  c #726F69",
"6  c #71716F",
"7  c #707070",
"8  c #7C7C7C",
"9  c #0B3F9F",
"0  c #133580",
"q  c #003AA5",
"w  c #013EA9",
"e  c #0543AB",
"r  c #0B41A0",
"t  c #0845AE",
"y  c #0E49AE",
"u  c #0D4BB2",
"i  c #0E50B9",
"p  c #1349A5",
"a  c #1D4FA8",
"s  c #114AB0",
"d  c #1351B5",
"f  c #1151B8",
"g  c #1558BE",
"h  c #1955B6",
"j  c #1857BA",
"k  c #1A58B7",
"l  c #1D5DBC",
"z  c #1F60BF",
"x  c #2557A8",
"c  c #245AB0",
"v  c #205EBC",
"b  c #3F629A",
"n  c #2662BE",
"m  c #2F67B8",
"M  c #3D6AAC",
"N  c #1B5FC3",
"B  c #1E60C1",
"V  c #2364C2",
"C  c #2568C8",
"Z  c #2B6AC4",
"A  c #2C6EC9",
"S  c #2E70CB",
"D  c #3370C3",
"F  c #3374CC",
"G  c #3878CE",
"H  c #3C7DD1",
"J  c #55658D",
"K  c #476FAD",
"L  c #416FB1",
"P  c #4A72AA",
"I  c #4371B3",
"U  c #637185",
"Y  c #6A7B8B",
"T  c #407CCF",
"R  c #3E80D2",
"E  c #6F8DBC",
"W  c #7D8FB3",
"Q  c #7090BF",
"!  c #4283D4",
"~  c #4387D8",
"^  c #4688D7",
"/  c #4488D8",
"(  c #4B8CD9",
")  c #4D90DC",
"_  c #5193DE",
"`  c #5496E0",
"'  c #5599E1",
"]  c #5A9CE4",
"[  c #5CA0E5",
"{  c #668DCC",
"}  c #7494C1",
"|  c #739BD5",
" . c #6298E7",
".. c #6292F7",
"X. c #7DA1D6",
"o. c #78A1DC",
"O. c #62A5E9",
"+. c #63A8EB",
"@. c #68ACED",
"#. c #6AAFF0",
"$. c #6EA8FC",
"%. c #6DB2F2",
"&. c #7AA6E1",
"*. c #72A3FF",
"=. c #70B6F4",
"-. c #807E7A",
";. c #828282",
":. c #8A8A8A",
">. c #939393",
",. c #9B9B9B",
"<. c #859ABD",
"1. c #A09F9E",
"2. c #A3A3A3",
"3. c #A8A6A4",
"4. c #A8A8A7",
"5. c #ABABAB",
"6. c #B0AEAA",
"7. c #B2B2B2",
"8. c #BABABA",
"9. c #8AA2C3",
"0. c #92ACCB",
"q. c #99A7C0",
"w. c #9FADC3",
"e. c #96B0CD",
"r. c #9AB1CD",
"t. c #9CB6D1",
"y. c #9FB9D3",
"u. c #A5B3CB",
"i. c #AAB7CF",
"p. c #A3BDD6",
"a. c #ADBAD2",
"s. c #B1BFD7",
"d. c #A7C2D9",
"f. c #A8C3D9",
"g. c #B5C4DB",
"h. c #BCC6D3",
"j. c #B8C6DC",
"k. c #B2C3E3",
"l. c #BBCEEA",
"z. c #BED3EE",
"x. c #C3C0BC",
"c. c #C3C3C3",
"v. c #CBC7C1",
"b. c #CACACA",
"n. c #C5CAD2",
"m. c #C0CCDB",
"M. c #C8CBD0",
"N. c #CBD1DA",
"B. c #D0CFCD",
"V. c #D2D0CF",
"C. c #D3D3D3",
"Z. c #DCDAD7",
"A. c #DBDBDB",
"S. c #C2CEE5",
"D. c #C9D3E0",
"F. c #C0D6F2",
"G. c #DEE2E9",
"H. c #E0DDDA",
"J. c #E1E0DE",
"K. c #E4E3E3",
"L. c #E1E5EC",
"P. c #E8E5E2",
"I. c #EAE9E6",
"U. c #EBEBEB",
"Y. c #E9EDF4",
"T. c #F0EEEB",
"R. c #F1F0EA",
"E. c #F3F3F3",
"W. c #F5F6F8",
"Q. c #F8F7F6",
"!. c #F9F8F7",
"~. c #FEFEFD",
"^. c None",
/* pixels */
"^.^.^.^.^.^.^.^.^.^.^.^.^.^.^.^.^.^.^.^.^.^.^.^.^.^.^.^.^.^.^.^.",
"^.> :.,.,.,.,.,.,.,.,.,.,.,.,.,.,.,.,.,.,.,.,.,.2.,.2.8 . ^.^.^.",
"X 7.~.~.~.~.~.~.~.~.~.~.~.~.~.~.~.~.~.~.~.~.~.~.~.~.~.!.>.  ^.^.",
"2 ~.~.~.~.~.~.~.~.~.~.~.~.~.~.~.~.~.~.~.~.~.~.~.~.~.~.~.U.@ ^.^.",
";.~.~.n.W 9.0.e.r.t.y.p.p.f.f.f.p.p.y.t.r.e.0.0.<.<.W.~.W.@ ^.^.",
";.~.~.q.w S R / ) ' [ +.@.=.=.=.@.+.[ _ ) / R F n y Y.~.E.* ^.^.",
";.~.~.w.l H R ( _ _ [ O.@.%.%.@.@.O.[ ' ) ^ R G S n Y.~.E.* ^.^.",
";.~.~.u.n G H ! ( _ ] [ O.O.+.+.O.[ ] _ ( ~ H G A Z L.E.I.= ^.^.",
":.~.~.u.n F G ! ^ ( _ ] ] [ [ [ ] _ _ ( ^ ! G F Z Z L.K.K.= ^.^.",
":.~.~.u.k A F H ! ^ ( _ ' ' ' _ _ _ ) ^ ! G F A V n G.K.H.= ^.^.",
":.~.~.u.e Z F G H ! ^ ( ) ) ) ) ) ( ! ! T G F Z v k G.H.K.= ^.^.",
">.~.~.a.q y Z F G H T ! ! ^ ^ / ^ ! ! G G F Z Z u s G.A.A.- ^.^.",
">.~.~.a.q q t N A F G H H R R R T H G F A Z n u q s L.A.K.- ^.^.",
">.~.~.a.w w e t u n Z D F S F G F S A Z m c p q 9 a N.b.V.;   ^.",
",.~.~.a.w e u u x b 3 4 U P I I I M M w.N.M.M.M.M.b.C.b.V.b.8   ",
",.~.~.s.e u u K K.U.I.I.P.K.A.A.A.Z.V.Z.K.P.K.A.I.P.A.S.l.k.7.. ",
",.~.~.g.u u i E ~.~.!.E.U.I.P.A.A.b.c.A.!.~.~.E.b.c.C.X.T { 5.. ",
",.~.~.g.d j g } ~.~.!.W.U.U.P.G.C.b.E.~.I.Z.C.L.E.C.V.j.g.N.4.. ",
"1.~.~.j.k N B } T.I.G.A.A.Z.N.b.c.W.W.b.c.8.7.7.c.I.b.V.A.Z.2.. ",
"2.~.~.j.v V Z Q v.7.7.5.4.4.2.,.b.~.C.b.>.- : >.5.c.C.c.C.Z.2.. ",
"2.~.~.D.| o.&.r.x.7.5.5.2.4.2.,.Q.E.A.1.o J & + 1.5.Z.x.C.Z.2.. ",
"3.~.~.L.l.z.F.h.8.5.5.5.2.2.,.2.~.I.P.; 0 *...# 6 6.b.x.x.c.,.. ",
",.~.!.!.Q.E.!.C.7.5.5.3.2.1.,.2.W.I.I.1 % $. .$ -.5.x.8.-.W 7 . ",
"* ~.~.W.W.E.W.C.7.5.4.3.2.1.,.>.I.L.L.V., Y 3 6 5.6.x.1.8 8 7 X ",
"  :.U.W.W.W.E.C.7.4.3.2.,.,.,.>.b.Y.C.U.b.2.3.8.5.8.h.>.-.-.7 X ",
"^.  + = * * * 8 8.4.2.2.,.,.,.:.,.A.K.C.A.Z.b.8.8.c.5.-.-.-.6 X ",
"^.^.^.        : 8.3.2.1.,.,.,.>.:.,.C.Z.V.b.c.c.h.4.;.-.8 8 2 X ",
"^.^.^.^.^.^.^.> 8.2.1.1.,.>.>.>.:.:.>.8.b.b.c.8.3.:.:.:.:.:.8 X ",
"^.^.^.^.^.^.^.< !.R.T.I.I.K.K.K.A.A.C.C.V.b.c.b.b.b.b.c.c.c.,.. ",
"^.^.^.^.^.^.^.+ 7.a.8.7.7.7.5.5.5.3.2.1.2.2.,.>.>.>.>.:.:.:.,   ",
"^.^.^.^.^.^.^.                  .                 .   . .       ",
"^.^.^.^.^.^.^.^.^.^.^.^.^.^.^.^.^.^.^.^.^.^.^.^.^.^.^.^.^.^.^.^."
};
